<svg width="15" height="16" viewBox="0 0 15 16" fill="none" xmlns="http://www.w3.org/2000/svg">
<path d="M7.56906 0.85C11.2836 0.85 14.275 4.06262 14.275 8C14.275 11.9374 11.2836 15.15 7.56906 15.15C3.84828 15.15 0.85 11.9377 0.85 8C0.85 4.06232 3.84828 0.85 7.56906 0.85ZM4.8395 5.05C5.01775 4.33699 5.25687 3.6472 5.55713 2.99569C4.62037 3.42487 3.82944 4.14532 3.28062 5.05H4.8395ZM8.61578 5.05C8.36218 4.21373 8.00568 3.42903 7.5625 2.70882C7.11932 3.42903 6.76282 4.21373 6.50922 5.05H8.61578ZM10.5911 9.25H12.522C12.6094 8.84659 12.6625 8.42831 12.6625 8C12.6625 7.57169 12.6094 7.15341 12.522 6.75H10.5911C10.6346 7.1599 10.6656 7.57384 10.6656 8C10.6656 8.42616 10.6346 8.8401 10.5911 9.25ZM10.2855 10.95C10.1072 11.6631 9.86807 12.353 9.56775 13.0046C10.5053 12.5761 11.2964 11.8593 11.8451 10.95H10.2855ZM9.56775 2.99543C9.86807 3.64702 10.1072 4.33689 10.2855 5.05H11.8451C11.2964 4.14065 10.5053 3.42391 9.56775 2.99543ZM7.5625 13.2912C8.00568 12.571 8.36218 11.7863 8.61578 10.95H6.50922C6.76282 11.7863 7.11932 12.571 7.5625 13.2912ZM6.07187 8C6.07187 8.42227 6.10875 8.8348 6.1593 9.25H8.9657C9.01625 8.8348 9.05312 8.42227 9.05312 8C9.05312 7.57815 9.01632 7.16033 8.9659 6.75H6.1591C6.10868 7.16033 6.07187 7.57815 6.07187 8ZM4.8395 10.95H3.28062C3.82944 11.8547 4.62037 12.5751 5.55713 13.0043C5.25687 12.3528 5.01775 11.663 4.8395 10.95ZM2.60305 9.25H4.53385C4.49041 8.8401 4.45938 8.42616 4.45938 8C4.45938 7.57384 4.49041 7.1599 4.53385 6.75H2.60305C2.5156 7.15341 2.4625 7.57169 2.4625 8C2.4625 8.42831 2.5156 8.84659 2.60305 9.25Z" fill="#657EFF" stroke="#657EFF" stroke-width="0.3"/>
</svg>
