<svg width="42" height="44" viewBox="0 0 42 44" fill="none" xmlns="http://www.w3.org/2000/svg">
<g filter="url(#filter0_d_169_518)">
<path d="M20.985 1.85C12.613 1.85 5.85 9.09462 5.85 18C5.85 26.9054 12.613 34.15 20.985 34.15C29.3717 34.15 36.15 26.9057 36.15 18C36.15 9.09432 29.3717 1.85 20.985 1.85ZM27.073 11.45C26.6233 9.60981 25.996 7.83731 25.1906 6.18224C27.6786 7.18788 29.7597 9.06063 31.1245 11.45H27.073ZM18.334 11.45C18.9522 9.32643 19.8573 7.34397 21 5.54188C22.1427 7.34397 23.0478 9.32643 23.666 11.45H18.334ZM14.2922 21.05H9.50935C9.28713 20.0703 9.15 19.049 9.15 18C9.15 16.951 9.28713 15.9297 9.50935 14.95H14.2922C14.1814 15.9534 14.1 16.9615 14.1 18C14.1 19.0385 14.1814 20.0466 14.2922 21.05ZM14.927 24.55C15.3767 26.3902 16.0041 28.1628 16.8094 29.8179C14.3206 28.8131 12.2393 26.9528 10.8748 24.55H14.927ZM16.8094 6.18213C16.0041 7.83723 15.3767 9.60977 14.927 11.45H10.8748C12.2393 9.04717 14.3206 7.18687 16.8094 6.18213ZM21 30.4581C19.8573 28.656 18.9522 26.6736 18.334 24.55H23.666C23.0478 26.6736 22.1427 28.656 21 30.4581ZM24.6 18C24.6 19.0339 24.5044 20.0404 24.3778 21.05H17.6222C17.4956 20.0404 17.4 19.0339 17.4 18C17.4 16.9665 17.4956 15.9459 17.622 14.95H24.378C24.5044 15.9459 24.6 16.9665 24.6 18ZM27.073 24.55H31.1245C29.7597 26.9394 27.6786 28.8121 25.1906 29.8178C25.996 28.1627 26.6233 26.3902 27.073 24.55ZM32.4907 21.05H27.7078C27.8186 20.0466 27.9 19.0385 27.9 18C27.9 16.9615 27.8186 15.9534 27.7078 14.95H32.4907C32.7129 15.9297 32.85 16.951 32.85 18C32.85 19.049 32.7129 20.0703 32.4907 21.05Z" fill="#657EFF" stroke="#657EFF" stroke-width="0.3"/>
</g>
<defs>
<filter id="filter0_d_169_518" x="0.699951" y="0.699951" width="40.6001" height="42.6001" filterUnits="userSpaceOnUse" color-interpolation-filters="sRGB">
<feFlood flood-opacity="0" result="BackgroundImageFix"/>
<feColorMatrix in="SourceAlpha" type="matrix" values="0 0 0 0 0 0 0 0 0 0 0 0 0 0 0 0 0 0 127 0" result="hardAlpha"/>
<feOffset dy="4"/>
<feGaussianBlur stdDeviation="2.5"/>
<feComposite in2="hardAlpha" operator="out"/>
<feColorMatrix type="matrix" values="0 0 0 0 0 0 0 0 0 0 0 0 0 0 0 0 0 0 0.25 0"/>
<feBlend mode="normal" in2="BackgroundImageFix" result="effect1_dropShadow_169_518"/>
<feBlend mode="normal" in="SourceGraphic" in2="effect1_dropShadow_169_518" result="shape"/>
</filter>
</defs>
</svg>
